HIERARCHY
ROOT Hips
{
	OFFSET 0.00 0.00 0.00
	CHANNELS 6 Xposition Yposition Zposition Xrotation Yrotation Zrotation
	JOINT Spine
	{
		OFFSET 0.00000 5.89385 0.00000
		CHANNELS 3 Xrotation Yrotation Zrotation
		JOINT Head
		{
			OFFSET 0.00000 16.44715 0.00000
			CHANNELS 3 Xrotation Yrotation Zrotation
			End Site
			{
				OFFSET 0.00000 4.52755 0.00000
			}
		}
		JOINT LeftShoulder
		{
			OFFSET 0.00000 10.90038 0.00000
			CHANNELS 3 Xrotation Yrotation Zrotation
			JOINT LeftArm
			{
				OFFSET 8.21946 0.00000 0.00000
				CHANNELS 3 Xrotation Yrotation Zrotation
				JOINT LeftForeArm
				{
					OFFSET 11.09494 0.00000 0.00000
					CHANNELS 3 Yrotation Zrotation Xrotation
					JOINT LeftHand
					{
						OFFSET 9.10388 0.00000 0.00000
						CHANNELS 3 Xrotation Yrotation Zrotation
						JOINT LeftHandThumb1
						{
							OFFSET 0.00000 0.00000 0.00000
							CHANNELS 3 Xrotation Zrotation Yrotation
							End Site
							{
								OFFSET 0.00000 0.00000 3.93700
							}
						}
						End Site
						{
							OFFSET 3.93700 0.00000 0.00000
						}
					}
				}
			}
		}
		JOINT RightShoulder
		{
			OFFSET 0.00000 10.90038 0.00000
			CHANNELS 3 Xrotation Yrotation Zrotation
			JOINT RightArm
			{
				OFFSET -8.21946 0.00000 0.00000
				CHANNELS 3 Xrotation Yrotation Zrotation
				JOINT RightForeArm
				{
					OFFSET -11.09494 0.00000 0.00000
					CHANNELS 3 Yrotation Zrotation Xrotation
					JOINT RightHand
					{
						OFFSET -9.10388 0.00000 0.00000
						CHANNELS 3 Xrotation Yrotation Zrotation
						JOINT RightHandThumb1
						{
							OFFSET 0.00000 0.00000 0.00000
							CHANNELS 3 Xrotation Zrotation Yrotation
							End Site
							{
								OFFSET 0.00000 0.00000 3.93700
							}
						}
						End Site
						{
							OFFSET -3.93700 0.00000 0.00000
						}
					}
				}
			}
		}
	}
	JOINT LeftUpLeg
	{
		OFFSET 3.69794 0.00000 0.00000
		CHANNELS 3 Xrotation Yrotation Zrotation
		JOINT LeftLeg
		{
			OFFSET 0.00000 -16.18147 0.00000
			CHANNELS 3 Xrotation Yrotation Zrotation
			JOINT LeftFoot
			{
				OFFSET 0.00000 -16.50139 0.00000
				CHANNELS 3 Xrotation Yrotation Zrotation
				JOINT LeftToeBase
				{
					OFFSET 0.00000 -1.65857 6.18989
					CHANNELS 3 Xrotation Yrotation Zrotation
					End Site
					{
						OFFSET 0.00000 0.00000 2.95275
					}
				}
			}
		}
	}
	JOINT RightUpLeg
	{
		OFFSET -3.69794 0.00000 0.00000
		CHANNELS 3 Xrotation Yrotation Zrotation
		JOINT RightLeg
		{
			OFFSET 0.00000 -16.18147 0.00000
			CHANNELS 3 Xrotation Yrotation Zrotation
			JOINT RightFoot
			{
				OFFSET 0.00000 -16.50139 0.00000
				CHANNELS 3 Xrotation Yrotation Zrotation
				JOINT RightToeBase
				{
					OFFSET 0.00000 -1.65857 6.18989
					CHANNELS 3 Xrotation Yrotation Zrotation
					End Site
					{
						OFFSET 0.00000 0.00000 2.95275
					}
				}
			}
		}
	}
}
MOTION
Frames: 18
Frame Time: 0.008333
 8.8446 37.0820 4.2251 113.7718 -49.6515 100.4592 -35.6359 -6.1166 10.7487 37.3179 4.3082 11.6340 21.6379 14.5371 12.1496 -17.5553 -33.2946 -85.6025 -26.4915 -0.0000 20.1372 2.2875 12.7332 -10.2722 33.1476 -0.0000 26.2537 59.9507 -22.7295 13.9639 -40.7018 47.4389 75.9306 24.4404 0.0000 -3.9477 -0.2753 0.8042 18.9008 32.8623 0.0000 -24.3270 -51.1684 14.2686 9.6977 22.4244 -0.0000 -0.0000 -13.5342 18.3289 7.0845 -2.1857 0.0000 0.0000 -130.6457 -25.5505 -24.4155 86.4767 -0.0000 -0.0000 -22.4098 -32.6826 -11.9766 -26.7856 0.0000 -0.0000
 8.8396 37.0842 4.2266 113.7587 -49.7514 100.3798 -35.5288 -6.1314 10.8142 37.4235 4.2993 11.7073 21.6668 14.5110 12.1375 -17.5735 -33.3144 -85.6229 -26.5089 -0.0000 20.1427 2.2916 12.7034 -10.3135 33.1476 -0.0000 26.2537 59.9161 -22.7392 13.9574 -40.7476 47.5107 75.9088 24.5154 0.0000 -3.4979 -0.2681 0.7825 18.9140 32.8623 0.0000 -24.3270 -51.0197 14.0388 9.6738 22.3783 0.0000 -0.0000 -13.5417 18.4583 7.1410 -2.2040 -0.0000 -0.0000 -129.8741 -24.4599 -24.0699 86.3361 0.0000 -0.0000 -22.5819 -33.1231 -12.5395 -27.5148 -0.0000 -0.0000
 8.8237 37.0735 4.2230 113.8480 -50.1228 100.4104 -35.1094 -6.0927 10.8440 37.4993 4.2909 11.8251 21.6340 14.4539 12.1376 -17.5676 -33.3045 -85.6234 -26.5127 -0.0000 20.1712 2.2995 12.6590 -10.3834 33.1476 -0.0000 26.2537 59.8358 -22.7035 13.9566 -40.7838 47.5587 75.8857 24.5887 0.0000 -3.0545 -0.2071 0.6034 18.9465 32.8623 0.0000 -24.3270 -50.6933 14.1371 9.7355 22.4672 -0.0000 0.0000 -13.6540 18.2836 7.2041 -2.2469 -0.0000 -0.0000 -128.8463 -23.3040 -23.7186 86.3385 0.0000 -0.0000 -22.8390 -33.3954 -12.9376 -26.9408 -0.0000 0.0000
 8.8109 37.0674 4.2210 113.8996 -50.3818 100.4171 -34.8268 -6.0583 10.8576 37.5684 4.2771 11.9507 21.6060 14.4202 12.1541 -17.5466 -33.2900 -85.6294 -26.5440 -0.0000 20.2191 2.3259 12.6582 -10.5005 33.1476 -0.0000 26.2537 59.8188 -22.6630 13.9838 -40.7859 47.7621 75.7711 24.6503 0.0000 -2.8016 -0.1737 0.5019 19.0907 32.8623 0.0000 -24.3270 -50.4291 14.0913 9.7465 22.4980 -0.0000 0.0000 -13.7169 18.2720 7.2366 -2.3080 0.0000 0.0000 -127.9160 -22.0829 -23.3501 86.3693 0.0000 0.0000 -22.9357 -33.7084 -13.1806 -27.1035 0.0000 -0.0000
 8.8001 37.0622 4.2194 113.9387 -50.6018 100.4283 -34.5941 -6.0011 10.8514 37.6341 4.2391 12.0862 21.5701 14.3826 12.1833 -17.5159 -33.2960 -85.6245 -26.5655 -0.0000 20.2306 2.3281 12.5885 -10.5664 33.1476 -0.0000 26.2537 59.7705 -22.6369 13.9884 -40.8079 47.8866 75.7411 24.6685 0.0000 -2.5664 -0.1230 0.3525 19.2367 32.8623 0.0000 -24.3270 -50.1877 14.0217 9.7387 22.5138 0.0000 0.0000 -13.7764 18.2722 7.2802 -2.3050 -0.0000 0.0000 -127.0305 -20.8514 -22.9815 86.4567 -0.0000 0.0000 -22.9767 -33.9502 -13.3413 -26.9503 0.0000 0.0000
 8.7866 37.0556 4.2154 113.9889 -50.8548 100.4456 -34.3306 -5.9405 10.8355 37.6851 4.2121 12.2283 21.5250 14.3573 12.2198 -17.5010 -33.3255 -85.6358 -26.5576 -0.0000 20.1695 2.3296 12.6005 -10.5635 33.1476 -0.0000 26.2537 59.7374 -22.5857 14.0141 -40.8148 47.9564 75.6834 24.7219 0.0000 -2.3152 -0.0415 0.1171 19.5238 32.8623 0.0000 -24.3270 -49.9105 13.9525 9.7398 22.5311 -0.0000 -0.0000 -13.8283 18.2610 7.2922 -2.4502 -0.0000 -0.0000 -126.1476 -19.6376 -22.6368 86.6266 0.0000 0.0000 -22.9708 -34.1123 -13.5667 -26.4441 0.0000 0.0000
 8.7726 37.0488 4.2102 114.0271 -51.1051 100.4691 -34.0771 -5.8641 10.7934 37.7194 4.1744 12.3785 21.4878 14.3272 12.2505 -17.4773 -33.3240 -85.6140 -26.5700 -0.0000 20.1952 2.3451 12.5831 -10.6462 33.1476 -0.0000 26.2537 59.7344 -22.5166 14.0736 -40.8516 47.9996 75.6333 24.7298 0.0000 -2.0683 0.0108 -0.0299 19.8899 32.8623 0.0000 -24.3270 -49.6356 13.8902 9.7277 22.5514 -0.0000 0.0000 -13.8888 18.2614 7.3084 -2.4556 -0.0000 -0.0000 -125.2696 -18.3493 -22.3020 86.8862 0.0000 -0.0000 -22.7413 -34.1082 -13.1383 -25.8075 0.0000 0.0000
 8.7587 37.0419 4.2032 114.0386 -51.3534 100.4743 -33.8317 -5.7942 10.7301 37.7432 4.1266 12.5265 21.4482 14.2945 12.2867 -17.4471 -33.3672 -85.5825 -26.5803 -0.0000 20.0841 2.3578 12.6593 -10.6407 33.1476 -0.0000 26.2537 59.6818 -22.4555 14.1153 -40.8425 47.9783 75.6150 24.7512 0.0000 -1.6807 0.0568 -0.1544 20.2150 32.8623 0.0000 -24.3270 -49.3462 13.8027 9.6947 22.5468 -0.0000 -0.0000 -13.9448 18.2853 7.3241 -2.2308 -0.0000 -0.0000 -124.4398 -17.0789 -22.0139 87.2170 0.0000 0.0000 -22.4053 -33.9159 -13.1461 -25.1854 -0.0000 -0.0000
 8.7448 37.0379 4.1951 114.0348 -51.5551 100.4504 -33.6459 -5.7427 10.6841 37.7749 4.0765 12.6522 21.4432 14.2722 12.2933 -17.4220 -33.4048 -85.5215 -26.5848 -0.0000 20.0467 2.3675 12.6440 -10.6960 33.1476 -0.0000 26.2537 59.6957 -22.3965 14.1883 -40.8957 48.1120 75.5495 24.7071 0.0000 -1.7134 0.1704 -0.4475 20.8429 32.8623 0.0000 -24.3270 -49.1276 13.7616 9.6974 22.5504 0.0000 -0.0000 -13.9794 18.2323 7.3075 -2.0593 -0.0000 -0.0000 -123.7076 -15.9361 -21.7709 87.5687 0.0000 -0.0000 -22.0207 -33.8075 -13.1775 -24.3408 -0.0000 -0.0000
 8.7320 37.0351 4.1886 114.0364 -51.7139 100.4273 -33.5052 -5.6957 10.6543 37.7968 4.0376 12.7466 21.4379 14.2615 12.3020 -17.3927 -33.4231 -85.4671 -26.5837 -0.0000 20.0730 2.3906 12.6145 -10.8223 33.1476 -0.0000 26.2537 59.6476 -22.3329 14.2175 -40.8590 48.0861 75.5036 24.7298 0.0000 -1.3819 0.2430 -0.6170 21.4993 32.8623 0.0000 -24.3270 -48.9406 13.7124 9.6985 22.5309 -0.0000 -0.0000 -13.9936 18.2188 7.2751 -1.9998 0.0000 -0.0000 -123.0563 -14.8879 -21.5551 87.9863 -0.0000 -0.0000 -21.5830 -33.7397 -12.9818 -23.2935 0.0000 0.0000
 8.7196 37.0322 4.1840 114.0373 -51.8783 100.4000 -33.3467 -5.6724 10.6410 37.8058 4.0013 12.8121 21.4293 14.2644 12.2788 -17.3704 -33.4431 -85.4101 -26.5607 -0.0000 20.0791 2.4019 12.6077 -10.8778 33.1476 -0.0000 26.2537 59.6127 -22.2790 14.2404 -40.8562 48.1864 75.4440 24.6905 0.0000 -1.2435 0.3184 -0.7772 22.2751 32.8623 0.0000 -24.3270 -48.7457 13.6850 9.7023 22.5030 0.0000 -0.0000 -13.9931 18.1767 7.2061 -1.9300 -0.0000 -0.0000 -122.4473 -13.8611 -21.3807 88.4118 -0.0000 0.0000 -20.6756 -33.7010 -13.1070 -23.2180 0.0000 0.0000
 8.7079 37.0330 4.1756 114.0254 -51.9829 100.3345 -33.2680 -5.6625 10.6423 37.8354 3.9857 12.8870 21.4223 14.2643 12.2856 -17.3371 -33.4416 -85.3709 -26.5331 -0.0000 20.1063 2.4132 12.5566 -10.9706 33.1476 -0.0000 26.2537 59.6162 -22.2255 14.2774 -40.8775 48.3137 75.3865 24.6314 0.0000 -1.2425 0.4486 -1.0450 23.2318 32.8623 0.0000 -24.3270 -48.6243 13.6679 9.7467 22.4698 -0.0000 0.0000 -13.9923 18.1066 7.1307 -1.8358 0.0000 0.0000 -121.9197 -12.9440 -21.2448 88.9248 -0.0000 -0.0000 -19.7271 -33.5492 -12.6132 -22.3272 -0.0000 -0.0000
 8.6930 37.0306 4.1653 114.0254 -52.1658 100.2723 -33.1021 -5.6472 10.6449 37.8474 3.9564 12.9666 21.4142 14.2498 12.2793 -17.3082 -33.4649 -85.3108 -26.5066 -0.0000 20.1071 2.4400 12.5891 -11.0622 33.1476 -0.0000 26.2537 59.5865 -22.1745 14.3024 -40.8560 48.4617 75.3284 24.5758 0.0000 -1.2249 0.5561 -1.2365 24.2165 32.8623 0.0000 -24.3270 -48.4721 13.7487 9.8222 22.4951 0.0000 -0.0000 -14.0773 17.9464 7.2380 -1.5270 -0.0000 0.0000 -121.3390 -12.0261 -21.1333 89.5469 -0.0000 -0.0000 -18.6309 -33.0845 -11.9714 -20.4918 0.0000 0.0000
 8.6821 37.0337 4.1581 113.9190 -52.2319 100.1106 -33.0843 -5.6905 10.6496 37.8736 3.9387 13.0202 21.4178 14.2481 12.2772 -17.2775 -33.5063 -85.2700 -26.4701 -0.0000 20.0964 2.4532 12.6005 -11.1109 33.1476 -0.0000 26.2537 59.5440 -22.1557 14.2892 -40.8127 48.6264 75.2957 24.5147 0.0000 -1.2586 0.6783 -1.4423 25.1900 32.8623 0.0000 -24.3270 -48.3449 13.5581 9.8024 22.4002 -0.0000 -0.0000 -14.0551 18.0072 7.1998 -1.4048 0.0000 -0.0000 -120.9539 -11.2203 -21.1129 90.1450 -0.0000 0.0000 -17.0864 -32.7549 -10.9349 -18.5297 0.0000 0.0000
 8.6687 37.0371 4.1468 113.8689 -52.3506 99.9738 -33.0031 -5.7310 10.6753 37.9166 3.9259 13.0823 21.4207 14.2403 12.2718 -17.2525 -33.5028 -85.2329 -26.4156 -0.0000 20.1267 2.4716 12.6257 -11.1707 33.1476 -0.0000 26.2537 59.5361 -22.1192 14.2960 -40.8024 48.8181 75.2620 24.4522 0.0000 -1.3363 0.8575 -1.7559 26.0334 32.8623 0.0000 -24.3270 -48.1933 13.4317 9.8407 22.3447 0.0000 0.0000 -14.0571 18.0057 7.1797 -1.2771 0.0000 -0.0000 -120.5333 -10.4812 -21.0980 90.7788 0.0000 0.0000 -15.0699 -32.4258 -8.9235 -15.9822 0.0000 0.0000
 8.6572 37.0424 4.1361 113.8850 -52.4084 99.9040 -32.9808 -5.7197 10.7103 37.9499 3.9392 13.1443 21.4370 14.2495 12.2700 -17.2492 -33.4988 -85.1915 -26.3447 -0.0000 20.1772 2.5071 12.5813 -11.3658 33.1476 -0.0000 26.2537 59.4835 -22.0966 14.2699 -40.7498 49.0097 75.2463 24.3717 0.0000 -1.3828 1.0297 -2.0288 26.9174 32.8623 0.0000 -24.3270 -48.1678 13.4850 9.9496 22.3594 0.0000 -0.0000 -14.0535 17.8761 7.1472 -1.2272 0.0000 0.0000 -120.1989 -9.8276 -21.0559 91.3756 0.0000 -0.0000 -12.4605 -32.1455 -6.3992 -13.1508 -0.0000 -0.0000
 8.6420 37.0437 4.1259 113.9162 -52.5772 99.8646 -32.8298 -5.7034 10.7249 37.9750 3.9615 13.2121 21.4266 14.2324 12.2625 -17.2244 -33.4937 -85.1419 -26.2714 -0.0000 20.1003 2.5372 12.6268 -11.4589 33.1476 -0.0000 26.2537 59.4368 -22.0599 14.2674 -40.7217 49.1853 75.2324 24.3071 0.0000 -1.4168 1.2131 -2.3121 27.6948 32.8623 0.0000 -24.3270 -47.9828 13.4785 10.0101 22.3365 -0.0000 -0.0000 -14.0679 17.8143 7.1465 -1.2597 0.0000 -0.0000 -119.8032 -9.2187 -21.0354 92.0139 -0.0000 -0.0000 -9.4343 -31.8060 -3.5678 -10.0548 -0.0000 0.0000
 8.6283 37.0467 4.1162 113.9658 -52.7038 99.8456 -32.7269 -5.6590 10.7430 38.0001 3.9809 13.2782 21.4109 14.2215 12.2673 -17.2198 -33.4926 -85.1047 -26.1813 -0.0000 20.1429 2.5727 12.6088 -11.6309 33.1476 -0.0000 26.2537 59.4123 -22.0373 14.2828 -40.7124 49.3416 75.2407 24.2521 0.0000 -1.3868 1.4107 -2.6061 28.4396 32.8623 0.0000 -24.3270 -47.8318 13.4423 10.0723 22.3098 0.0000 -0.0000 -14.0816 17.7869 7.1655 -1.1866 0.0000 -0.0000 -119.4415 -8.6807 -21.0117 92.6814 -0.0000 -0.0000 -6.1855 -31.1270 -0.6808 -6.4627 -0.0000 -0.0000
